<svg width="13" height="11" viewBox="0 0 13 11" fill="none" xmlns="http://www.w3.org/2000/svg">
<path d="M12.8 2.6984V8.4C12.8 8.93043 12.5893 9.43914 12.2142 9.81421C11.8391 10.1893 11.3304 10.4 10.8 10.4H2C1.46957 10.4 0.960859 10.1893 0.585786 9.81421C0.210714 9.43914 0 8.93043 0 8.4V2.6984L6.1968 6.3448C6.25836 6.38111 6.32853 6.40026 6.4 6.40026C6.47147 6.40026 6.54164 6.38111 6.6032 6.3448L12.8 2.6984ZM10.8 2.47621e-08C11.2921 -7.73728e-05 11.767 0.181285 12.1338 0.509392C12.5005 0.837498 12.7335 1.28931 12.788 1.7784L6.4 5.536L0.0120001 1.7784C0.0665266 1.28931 0.299459 0.837498 0.666236 0.509392C1.03301 0.181285 1.50788 -7.73728e-05 2 2.47621e-08H10.8Z" fill="#545454"/>
</svg>
