<svg width="14" height="15" viewBox="0 0 14 15" fill="none" xmlns="http://www.w3.org/2000/svg">
<path d="M7 15C7.53043 15 8.03914 14.8025 8.41421 14.4509C8.78929 14.0992 9 13.6224 9 13.1251H5C5 13.6224 5.21071 14.0992 5.58579 14.4509C5.96086 14.8025 6.46957 15 7 15ZM7 1.79885L6.203 1.94978C5.29896 2.12245 4.48633 2.58265 3.90265 3.25248C3.31897 3.9223 3.0001 4.76061 3 5.62551C3 6.21423 2.866 7.68509 2.541 9.13344C2.381 9.85247 2.165 10.6015 1.878 11.2502H12.122C11.835 10.6015 11.62 9.85341 11.459 9.13344C11.134 7.68509 11 6.21423 11 5.62551C10.9997 4.76077 10.6807 3.92268 10.097 3.25305C9.51337 2.58342 8.70087 2.12336 7.797 1.95071L7 1.79791V1.79885ZM13.22 11.2502C13.443 11.6692 13.701 12.0011 14 12.1877H0C0.299 12.0011 0.557 11.6692 0.78 11.2502C1.68 9.5628 2 6.45047 2 5.62551C2 3.35689 3.72 1.46324 6.005 1.03108C5.99104 0.900728 6.00638 0.769084 6.05003 0.644635C6.09368 0.520186 6.16467 0.405695 6.25842 0.308545C6.35217 0.211396 6.4666 0.133745 6.59433 0.0806014C6.72206 0.0274574 6.86026 0 7 0C7.13974 0 7.27794 0.0274574 7.40567 0.0806014C7.5334 0.133745 7.64783 0.211396 7.74158 0.308545C7.83533 0.405695 7.90632 0.520186 7.94997 0.644635C7.99362 0.769084 8.00896 0.900728 7.995 1.03108C9.12528 1.2466 10.1414 1.82168 10.8712 2.65896C11.6011 3.49623 11.9999 4.54423 12 5.62551C12 6.45047 12.32 9.5628 13.22 11.2502Z" fill="#545454"/>
</svg>
