<svg width="1000" height="354" viewBox="0 0 1000 354" fill="none" xmlns="http://www.w3.org/2000/svg">
<rect width="1000" height="354" fill="#D9D9D9"/>
<path d="M435.636 149.909L430.818 151.273C430.515 150.47 430.068 149.689 429.477 148.932C428.902 148.159 428.114 147.523 427.114 147.023C426.114 146.523 424.833 146.273 423.273 146.273C421.136 146.273 419.356 146.765 417.932 147.75C416.523 148.72 415.818 149.955 415.818 151.455C415.818 152.788 416.303 153.841 417.273 154.614C418.242 155.386 419.758 156.03 421.818 156.545L427 157.818C430.121 158.576 432.447 159.735 433.977 161.295C435.508 162.841 436.273 164.833 436.273 167.273C436.273 169.273 435.697 171.061 434.545 172.636C433.409 174.212 431.818 175.455 429.773 176.364C427.727 177.273 425.348 177.727 422.636 177.727C419.076 177.727 416.129 176.955 413.795 175.409C411.462 173.864 409.985 171.606 409.364 168.636L414.455 167.364C414.939 169.242 415.856 170.652 417.205 171.591C418.568 172.53 420.348 173 422.545 173C425.045 173 427.03 172.47 428.5 171.409C429.985 170.333 430.727 169.045 430.727 167.545C430.727 166.333 430.303 165.318 429.455 164.5C428.606 163.667 427.303 163.045 425.545 162.636L419.727 161.273C416.53 160.515 414.182 159.341 412.682 157.75C411.197 156.144 410.455 154.136 410.455 151.727C410.455 149.758 411.008 148.015 412.114 146.5C413.235 144.985 414.758 143.795 416.682 142.932C418.621 142.068 420.818 141.636 423.273 141.636C426.727 141.636 429.439 142.394 431.409 143.909C433.394 145.424 434.803 147.424 435.636 149.909ZM449.71 130.455V177H444.347V130.455H449.71ZM459.534 177V142.091H464.898V177H459.534ZM462.261 136.273C461.216 136.273 460.314 135.917 459.557 135.205C458.814 134.492 458.443 133.636 458.443 132.636C458.443 131.636 458.814 130.78 459.557 130.068C460.314 129.356 461.216 129 462.261 129C463.307 129 464.201 129.356 464.943 130.068C465.701 130.78 466.08 131.636 466.08 132.636C466.08 133.636 465.701 134.492 464.943 135.205C464.201 135.917 463.307 136.273 462.261 136.273ZM487.903 177.727C484.994 177.727 482.426 176.992 480.199 175.523C477.972 174.038 476.229 171.947 474.972 169.25C473.714 166.538 473.085 163.333 473.085 159.636C473.085 155.97 473.714 152.788 474.972 150.091C476.229 147.394 477.979 145.311 480.222 143.841C482.464 142.371 485.055 141.636 487.994 141.636C490.267 141.636 492.063 142.015 493.381 142.773C494.714 143.515 495.729 144.364 496.426 145.318C497.138 146.258 497.691 147.03 498.085 147.636H498.54V130.455H503.903V177H498.722V171.636H498.085C497.691 172.273 497.131 173.076 496.403 174.045C495.676 175 494.638 175.856 493.29 176.614C491.941 177.356 490.146 177.727 487.903 177.727ZM488.631 172.909C490.782 172.909 492.6 172.348 494.085 171.227C495.57 170.091 496.699 168.523 497.472 166.523C498.244 164.508 498.631 162.182 498.631 159.545C498.631 156.939 498.252 154.659 497.494 152.705C496.737 150.735 495.616 149.205 494.131 148.114C492.646 147.008 490.813 146.455 488.631 146.455C486.358 146.455 484.464 147.038 482.949 148.205C481.449 149.356 480.32 150.924 479.562 152.909C478.82 154.879 478.449 157.091 478.449 159.545C478.449 162.03 478.828 164.288 479.585 166.318C480.358 168.333 481.494 169.939 482.994 171.136C484.509 172.318 486.388 172.909 488.631 172.909ZM529.108 177.727C525.744 177.727 522.843 176.985 520.403 175.5C517.979 174 516.108 171.909 514.79 169.227C513.487 166.53 512.835 163.394 512.835 159.818C512.835 156.242 513.487 153.091 514.79 150.364C516.108 147.621 517.941 145.485 520.29 143.955C522.653 142.409 525.411 141.636 528.562 141.636C530.381 141.636 532.176 141.939 533.949 142.545C535.722 143.152 537.335 144.136 538.79 145.5C540.244 146.848 541.403 148.636 542.267 150.864C543.131 153.091 543.562 155.833 543.562 159.091V161.364H516.653V156.727H538.108C538.108 154.758 537.714 153 536.926 151.455C536.153 149.909 535.047 148.689 533.608 147.795C532.184 146.902 530.502 146.455 528.562 146.455C526.426 146.455 524.578 146.985 523.017 148.045C521.472 149.091 520.282 150.455 519.449 152.136C518.616 153.818 518.199 155.621 518.199 157.545V160.636C518.199 163.273 518.653 165.508 519.562 167.341C520.487 169.159 521.767 170.545 523.403 171.5C525.04 172.439 526.941 172.909 529.108 172.909C530.517 172.909 531.79 172.712 532.926 172.318C534.078 171.909 535.07 171.303 535.903 170.5C536.737 169.682 537.381 168.667 537.835 167.455L543.017 168.909C542.472 170.667 541.555 172.212 540.267 173.545C538.979 174.864 537.388 175.894 535.494 176.636C533.6 177.364 531.472 177.727 529.108 177.727ZM585.994 130.455V177H580.358V136.364H580.085L568.722 143.909V138.182L580.358 130.455H585.994Z" fill="black"/>
</svg>
