<svg width="16" height="12" viewBox="0 0 16 12" fill="none" xmlns="http://www.w3.org/2000/svg">
<path d="M15.836 2.428C15.836 2.428 15.68 1.325 15.199 0.841C14.59 0.204 13.908 0.2 13.596 0.163C11.359 1.04308e-07 7.999 0 7.999 0H7.993C7.993 0 4.634 1.04308e-07 2.396 0.163C2.083 0.201 1.402 0.204 0.793 0.841C0.312 1.325 0.159 2.428 0.159 2.428C0.159 2.428 0 3.722 0 5.019V6.232C0 7.526 0.159 8.823 0.159 8.823C0.159 8.823 0.315 9.926 0.793 10.411C1.402 11.048 2.202 11.027 2.559 11.095C3.84 11.217 8 11.254 8 11.254C8 11.254 11.363 11.248 13.6 11.088C13.913 11.051 14.594 11.047 15.203 10.41C15.684 9.926 15.84 8.822 15.84 8.822C15.84 8.822 15.999 7.528 15.999 6.231V5.018C15.996 3.724 15.837 2.427 15.837 2.427L15.836 2.428ZM6.342 7.703V3.206L10.664 5.462L6.342 7.703V7.703Z" fill="#545454"/>
</svg>
