<svg width="18" height="18" viewBox="0 0 18 18" fill="none" xmlns="http://www.w3.org/2000/svg">
<path d="M9 8.262C11.97 5.562 13.5 4.176 13.5 2.421C13.5 1.071 12.375 0 11.025 0C10.251 0 9.513 0.324 9 0.9C8.487 0.324 7.749 0 6.921 0C5.571 0 4.5 1.125 4.5 2.475C4.5 4.176 6.03 5.562 9 8.262ZM8.262 9C5.562 6.03 4.176 4.5 2.421 4.5C1.071 4.5 0 5.625 0 6.975C0 7.749 0.324 8.487 0.9 9C0.324 9.513 0 10.251 0 11.079C0 12.429 1.125 13.5 2.475 13.5C4.176 13.5 5.562 11.97 8.262 9ZM9.747 9C12.438 11.97 13.824 13.5 15.579 13.5C16.929 13.5 18 12.375 18 11.025C18 10.251 17.676 9.513 17.1 9C17.676 8.487 18 7.749 18 6.921C18 5.571 16.875 4.5 15.525 4.5C13.824 4.5 12.438 6.03 9.747 9ZM9 9.738C6.03 12.438 4.5 13.824 4.5 15.579C4.5 16.929 5.625 18 6.975 18C7.749 18 8.487 17.676 9 17.1C9.513 17.676 10.251 18 11.079 18C12.429 18 13.5 16.875 13.5 15.525C13.5 13.824 11.97 12.438 9 9.738Z" fill="#4ECB71"/>
</svg>
