<svg width="8" height="11" viewBox="0 0 8 11" fill="none" xmlns="http://www.w3.org/2000/svg">
<path d="M7.33333 0H0.666667C0.489856 0 0.320286 0.0724328 0.195262 0.201364C0.0702379 0.330295 0 0.505164 0 0.6875V10.3125C0 10.4948 0.0702379 10.6697 0.195262 10.7986C0.320286 10.9276 0.489856 11 0.666667 11H7.33333C7.51014 11 7.67971 10.9276 7.80474 10.7986C7.92976 10.6697 8 10.4948 8 10.3125V0.6875C8 0.505164 7.92976 0.330295 7.80474 0.201364C7.67971 0.0724328 7.51014 0 7.33333 0ZM2.33333 8.25H1.66667V7.5625H2.33333V8.25ZM2.33333 6.875H1.66667V6.1875H2.33333V6.875ZM2.33333 5.5H1.66667V4.8125H2.33333V5.5ZM2.33333 4.125H1.66667V3.4375H2.33333V4.125ZM2.33333 2.75H1.66667V2.0625H2.33333V2.75ZM6.33333 8.25H3V7.5625H6.33333V8.25ZM6.33333 6.875H3V6.1875H6.33333V6.875ZM6.33333 5.5H3V4.8125H6.33333V5.5ZM6.33333 4.125H3V3.4375H6.33333V4.125ZM6.33333 2.75H3V2.0625H6.33333V2.75Z" fill="#545454"/>
</svg>
