<svg width="1000" height="354" viewBox="0 0 1000 354" fill="none" xmlns="http://www.w3.org/2000/svg">
<rect width="1000" height="354" fill="#D9D9D9"/>
<path d="M435.636 173.909L430.818 175.273C430.515 174.47 430.068 173.689 429.477 172.932C428.902 172.159 428.114 171.523 427.114 171.023C426.114 170.523 424.833 170.273 423.273 170.273C421.136 170.273 419.356 170.765 417.932 171.75C416.523 172.72 415.818 173.955 415.818 175.455C415.818 176.788 416.303 177.841 417.273 178.614C418.242 179.386 419.758 180.03 421.818 180.545L427 181.818C430.121 182.576 432.447 183.735 433.977 185.295C435.508 186.841 436.273 188.833 436.273 191.273C436.273 193.273 435.697 195.061 434.545 196.636C433.409 198.212 431.818 199.455 429.773 200.364C427.727 201.273 425.348 201.727 422.636 201.727C419.076 201.727 416.129 200.955 413.795 199.409C411.462 197.864 409.985 195.606 409.364 192.636L414.455 191.364C414.939 193.242 415.856 194.652 417.205 195.591C418.568 196.53 420.348 197 422.545 197C425.045 197 427.03 196.47 428.5 195.409C429.985 194.333 430.727 193.045 430.727 191.545C430.727 190.333 430.303 189.318 429.455 188.5C428.606 187.667 427.303 187.045 425.545 186.636L419.727 185.273C416.53 184.515 414.182 183.341 412.682 181.75C411.197 180.144 410.455 178.136 410.455 175.727C410.455 173.758 411.008 172.015 412.114 170.5C413.235 168.985 414.758 167.795 416.682 166.932C418.621 166.068 420.818 165.636 423.273 165.636C426.727 165.636 429.439 166.394 431.409 167.909C433.394 169.424 434.803 171.424 435.636 173.909ZM449.71 154.455V201H444.347V154.455H449.71ZM459.534 201V166.091H464.898V201H459.534ZM462.261 160.273C461.216 160.273 460.314 159.917 459.557 159.205C458.814 158.492 458.443 157.636 458.443 156.636C458.443 155.636 458.814 154.78 459.557 154.068C460.314 153.356 461.216 153 462.261 153C463.307 153 464.201 153.356 464.943 154.068C465.701 154.78 466.08 155.636 466.08 156.636C466.08 157.636 465.701 158.492 464.943 159.205C464.201 159.917 463.307 160.273 462.261 160.273ZM487.903 201.727C484.994 201.727 482.426 200.992 480.199 199.523C477.972 198.038 476.229 195.947 474.972 193.25C473.714 190.538 473.085 187.333 473.085 183.636C473.085 179.97 473.714 176.788 474.972 174.091C476.229 171.394 477.979 169.311 480.222 167.841C482.464 166.371 485.055 165.636 487.994 165.636C490.267 165.636 492.063 166.015 493.381 166.773C494.714 167.515 495.729 168.364 496.426 169.318C497.138 170.258 497.691 171.03 498.085 171.636H498.54V154.455H503.903V201H498.722V195.636H498.085C497.691 196.273 497.131 197.076 496.403 198.045C495.676 199 494.638 199.856 493.29 200.614C491.941 201.356 490.146 201.727 487.903 201.727ZM488.631 196.909C490.782 196.909 492.6 196.348 494.085 195.227C495.57 194.091 496.699 192.523 497.472 190.523C498.244 188.508 498.631 186.182 498.631 183.545C498.631 180.939 498.252 178.659 497.494 176.705C496.737 174.735 495.616 173.205 494.131 172.114C492.646 171.008 490.813 170.455 488.631 170.455C486.358 170.455 484.464 171.038 482.949 172.205C481.449 173.356 480.32 174.924 479.562 176.909C478.82 178.879 478.449 181.091 478.449 183.545C478.449 186.03 478.828 188.288 479.585 190.318C480.358 192.333 481.494 193.939 482.994 195.136C484.509 196.318 486.388 196.909 488.631 196.909ZM529.108 201.727C525.744 201.727 522.843 200.985 520.403 199.5C517.979 198 516.108 195.909 514.79 193.227C513.487 190.53 512.835 187.394 512.835 183.818C512.835 180.242 513.487 177.091 514.79 174.364C516.108 171.621 517.941 169.485 520.29 167.955C522.653 166.409 525.411 165.636 528.562 165.636C530.381 165.636 532.176 165.939 533.949 166.545C535.722 167.152 537.335 168.136 538.79 169.5C540.244 170.848 541.403 172.636 542.267 174.864C543.131 177.091 543.562 179.833 543.562 183.091V185.364H516.653V180.727H538.108C538.108 178.758 537.714 177 536.926 175.455C536.153 173.909 535.047 172.689 533.608 171.795C532.184 170.902 530.502 170.455 528.562 170.455C526.426 170.455 524.578 170.985 523.017 172.045C521.472 173.091 520.282 174.455 519.449 176.136C518.616 177.818 518.199 179.621 518.199 181.545V184.636C518.199 187.273 518.653 189.508 519.562 191.341C520.487 193.159 521.767 194.545 523.403 195.5C525.04 196.439 526.941 196.909 529.108 196.909C530.517 196.909 531.79 196.712 532.926 196.318C534.078 195.909 535.07 195.303 535.903 194.5C536.737 193.682 537.381 192.667 537.835 191.455L543.017 192.909C542.472 194.667 541.555 196.212 540.267 197.545C538.979 198.864 537.388 199.894 535.494 200.636C533.6 201.364 531.472 201.727 529.108 201.727ZM569.631 201V196.909L584.994 180.091C586.797 178.121 588.282 176.409 589.449 174.955C590.616 173.485 591.479 172.106 592.04 170.818C592.616 169.515 592.903 168.152 592.903 166.727C592.903 165.091 592.509 163.674 591.722 162.477C590.949 161.28 589.888 160.356 588.54 159.705C587.191 159.053 585.676 158.727 583.994 158.727C582.206 158.727 580.646 159.098 579.312 159.841C577.994 160.568 576.972 161.591 576.244 162.909C575.532 164.227 575.176 165.773 575.176 167.545H569.812C569.812 164.818 570.441 162.424 571.699 160.364C572.956 158.303 574.669 156.697 576.835 155.545C579.017 154.394 581.464 153.818 584.176 153.818C586.903 153.818 589.32 154.394 591.426 155.545C593.532 156.697 595.184 158.25 596.381 160.205C597.578 162.159 598.176 164.333 598.176 166.727C598.176 168.439 597.866 170.114 597.244 171.75C596.638 173.371 595.578 175.182 594.062 177.182C592.562 179.167 590.479 181.591 587.812 184.455L577.358 195.636V196H598.994V201H569.631Z" fill="black"/>
</svg>
